# xmcd
#
# Track frame offsets: 
#        150
#        11127
#        24492
#        35557
#        47997
#        59182
#        71392
#        81915
#        92270
#        103392
#
# Disc length: 1534 seconds
#
# Revision: 0
# Processed by: cddbd v1.5.2PL0 Copyright (c) Steve Scherf et al.
# Submitted via: ExactAudioCopy v0.95b4
#
DISCID=8705fc0a
DTITLE=Various Artist - COUNTRY FAVORITES-THE #1 HITS
DYEAR=1980
DGENRE=COUNTRY
TTITLE0=ROGER MILLER - KING OF THE ROAD
TTITLE1=LEFTY FRIZZELL - ALMOST PERSUADED
TTITLE2=FREDDIE HART - EASY LOVIN'
TTITLE3=PORTER WAGONER - SATISFIED MIND
TTITLE4=CONWAY TWITTY - HELLO DARLIN'
TTITLE5=JOHNNY PAYCHECK - TAKE THIS JOB AND SHOVE IT
TTITLE6=WEBB PIERCE - IN THE JAIL HOUSE NOW
TTITLE7=FERLIN HUSKY - WINGS OF A SNOW WHITE DOVE
TTITLE8=BILLY WALKER - CHARLIE'S SHOES
TTITLE9=STONEWALL JACKSON - WATERLOO
EXTD=
EXTT0=
EXTT1=
EXTT2=
EXTT3=
EXTT4=
EXTT5=
EXTT6=
EXTT7=
EXTT8=
EXTT9=
PLAYORDER=
